<?xml version="1.0" encoding="UTF-8" standalone="no"?>
<svg
   width="342pt"
   height="480pt"
   viewBox="0 0 342 480"
   version="1.1"
   id="svg25"
   sodipodi:docname="C.svg"
   inkscape:version="1.1.1 (3bf5ae0d25, 2021-09-20)"
   xmlns:inkscape="http://www.inkscape.org/namespaces/inkscape"
   xmlns:sodipodi="http://sodipodi.sourceforge.net/DTD/sodipodi-0.dtd"
   xmlns="http://www.w3.org/2000/svg"
   xmlns:svg="http://www.w3.org/2000/svg">
  <defs
     id="defs29" />
  <sodipodi:namedview
     id="namedview27"
     pagecolor="#ffffff"
     bordercolor="#666666"
     borderopacity="1.0"
     inkscape:pageshadow="2"
     inkscape:pageopacity="0.0"
     inkscape:pagecheckerboard="0"
     inkscape:document-units="pt"
     showgrid="false"
     inkscape:zoom="0.2298097"
     inkscape:cx="-1161.8309"
     inkscape:cy="400.33123"
     inkscape:window-width="1398"
     inkscape:window-height="1040"
     inkscape:window-x="506"
     inkscape:window-y="0"
     inkscape:window-maximized="0"
     inkscape:current-layer="svg25" />
  <g
     id="g11"
     transform="matrix(1.4283772,0,0,1.4283772,-34.860832,27.460988)">
    <path
       d="m 252.71,93.61 a 21.67,21.67 0 0 0 -2.65,-10.87 20.74,20.74 0 0 0 -7.87,-7.67 Q 198.77,50 155.32,25 c -7.8,-4.51 -15.36,-4.35 -23.11,0.23 C 120.69,32 63,65.09 45.81,75.06 38.73,79.16 35.29,85.44 35.29,93.6 v 100.8 a 21.77,21.77 0 0 0 2.55,10.66 20.63,20.63 0 0 0 8,7.88 c 17.19,10 74.89,43.05 86.41,49.85 7.75,4.58 15.31,4.74 23.12,0.23 q 43.41,-25.08 86.87,-50.09 a 20.63,20.63 0 0 0 8,-7.88 21.77,21.77 0 0 0 2.55,-10.66 V 93.61 Z"
       fill="#004482"
       id="path2" />
    <path
       d="M 250.05,82.74 37.81,205.06 A 21.75,21.75 0 0 1 35.28,194.41 V 93.6 C 35.28,85.44 38.73,79.16 45.8,75.06 63,65.09 120.69,32 132.22,25.21 c 7.73,-4.58 15.3,-4.74 23.1,-0.23 q 43.41,25.08 86.87,50.09 a 20.72,20.72 0 0 1 7.86,7.67 z"
       fill="#659ad2"
       id="path6" />
    <path
       d="m 148.2,184.72 a 39.91,39.91 0 0 1 -35,-20.63 q -0.53,-0.94 -1,-1.92 A 39.94,39.94 0 0 1 179,119.4 c 0.53,0.64 1,1.31 1.53,2 0.24,0.33 0.48,0.66 0.7,1 l 35.07,-20.2 q -1.28,-2.06 -2.68,-4 c -0.49,-0.69 -1,-1.35 -1.48,-2 A 79.9,79.9 0 0 0 78,181.92 c 0.34,0.64 0.69,1.27 1,1.9 a 79.91,79.91 0 0 0 136.86,3.62 l -34.29,-20.73 a 39.88,39.88 0 0 1 -33.37,18.01 z"
       fill="#ffffff"
       id="path8" />
  </g>
</svg>
